<mxfile host="65bd71144e">
    <diagram id="Cudj0PIT1o80PcDd_muO" name="Page-1">
        <mxGraphModel dx="1874" dy="592" grid="1" gridSize="10" guides="1" tooltips="1" connect="1" arrows="1" fold="1" page="1" pageScale="1" pageWidth="850" pageHeight="1100" math="0" shadow="0">
            <root>
                <mxCell id="0"/>
                <mxCell id="1" parent="0"/>
                <mxCell id="3" style="edgeStyle=none;html=1;exitX=1;exitY=0.5;exitDx=0;exitDy=0;entryX=0.036;entryY=0.082;entryDx=0;entryDy=0;entryPerimeter=0;" edge="1" parent="1" source="2" target="4">
                    <mxGeometry relative="1" as="geometry">
                        <mxPoint x="280" y="220" as="targetPoint"/>
                    </mxGeometry>
                </mxCell>
                <mxCell id="2" value="FD" style="rounded=0;whiteSpace=wrap;html=1;fillColor=#FF3333;" vertex="1" parent="1">
                    <mxGeometry x="90" y="200" width="70" height="60" as="geometry"/>
                </mxCell>
                <mxCell id="7" style="edgeStyle=none;html=1;exitX=1;exitY=0.5;exitDx=0;exitDy=0;" edge="1" parent="1" source="4" target="8">
                    <mxGeometry relative="1" as="geometry">
                        <mxPoint x="660" y="220" as="targetPoint"/>
                    </mxGeometry>
                </mxCell>
                <mxCell id="4" value="&lt;span style=&quot;white-space: pre;&quot;&gt;&#9;&lt;/span&gt;&lt;span style=&quot;white-space: pre;&quot;&gt;&#9;&lt;/span&gt;" style="shape=parallelogram;perimeter=parallelogramPerimeter;whiteSpace=wrap;html=1;fixedSize=1;fillColor=#333333;align=left;" vertex="1" parent="1">
                    <mxGeometry x="340" y="200" width="440" height="380" as="geometry"/>
                </mxCell>
                <mxCell id="8" value="" style="html=1;whiteSpace=wrap;shape=isoCube2;backgroundOutline=1;isoAngle=15;fillColor=#000000;direction=east;" vertex="1" parent="1">
                    <mxGeometry x="990" y="340" width="90" height="100" as="geometry"/>
                </mxCell>
                <mxCell id="10" value="this function check the fd that generate an event and return a reference&amp;nbsp; client class that will be pass in a command." style="text;html=1;strokeColor=none;fillColor=none;align=center;verticalAlign=middle;whiteSpace=wrap;rounded=0;" vertex="1" parent="1">
                    <mxGeometry x="85" y="120" width="630" height="30" as="geometry"/>
                </mxCell>
                <mxCell id="11" value="NEED" style="text;html=1;strokeColor=none;fillColor=none;align=center;verticalAlign=middle;whiteSpace=wrap;rounded=0;" vertex="1" parent="1">
                    <mxGeometry x="370" y="215" width="60" height="30" as="geometry"/>
                </mxCell>
                <mxCell id="13" value="" style="rounded=0;whiteSpace=wrap;html=1;fillColor=#333333;" vertex="1" parent="1">
                    <mxGeometry x="380" y="280" width="380" height="60" as="geometry"/>
                </mxCell>
                <mxCell id="14" value="" style="html=1;whiteSpace=wrap;shape=isoCube2;backgroundOutline=1;isoAngle=15;fillColor=#000000;direction=east;" vertex="1" parent="1">
                    <mxGeometry x="405" y="287.5" width="40" height="45" as="geometry"/>
                </mxCell>
                <mxCell id="15" value="" style="html=1;whiteSpace=wrap;shape=isoCube2;backgroundOutline=1;isoAngle=15;fillColor=#000000;direction=east;" vertex="1" parent="1">
                    <mxGeometry x="460" y="287.5" width="40" height="45" as="geometry"/>
                </mxCell>
                <mxCell id="16" value="" style="html=1;whiteSpace=wrap;shape=isoCube2;backgroundOutline=1;isoAngle=15;fillColor=#000000;direction=east;" vertex="1" parent="1">
                    <mxGeometry x="520" y="287.5" width="40" height="45" as="geometry"/>
                </mxCell>
                <mxCell id="17" value="" style="html=1;whiteSpace=wrap;shape=isoCube2;backgroundOutline=1;isoAngle=15;fillColor=#000000;direction=east;" vertex="1" parent="1">
                    <mxGeometry x="580" y="287.5" width="40" height="45" as="geometry"/>
                </mxCell>
                <mxCell id="18" value="" style="html=1;whiteSpace=wrap;shape=isoCube2;backgroundOutline=1;isoAngle=15;fillColor=#000000;direction=east;" vertex="1" parent="1">
                    <mxGeometry x="640" y="287.5" width="40" height="45" as="geometry"/>
                </mxCell>
                <mxCell id="19" value="" style="html=1;whiteSpace=wrap;shape=isoCube2;backgroundOutline=1;isoAngle=15;fillColor=#000000;direction=east;" vertex="1" parent="1">
                    <mxGeometry x="700" y="287.5" width="40" height="45" as="geometry"/>
                </mxCell>
            </root>
        </mxGraphModel>
    </diagram>
</mxfile>
